<svg version="1.1" xmlns="http://www.w3.org/2000/svg" viewBox="0 0 120 120">
<style type="text/css">
   circle { fill: #151c21; }
   .click-box { fill: transparent; }
   .active { fill: #18e741; }
</style>
<rect x="0" y="0" width="120" height="120"></rect>
<circle cx="5" cy="5" r="4.9"></circle><circle cx="15" cy="5" r="4.9"></circle><circle cx="25" cy="5" r="4.9"></circle><circle cx="35" cy="5" r="4.9"></circle><circle cx="45" cy="5" r="4.9"></circle><circle cx="55" cy="5" r="4.9"></circle><circle cx="65" cy="5" r="4.9"></circle><circle cx="75" cy="5" r="4.9"></circle><circle cx="85" cy="5" r="4.9"></circle><circle cx="95" cy="5" r="4.9"></circle><circle cx="105" cy="5" r="4.9"></circle><circle cx="115" cy="5" r="4.9"></circle><circle cx="5" cy="15" r="4.9"></circle><circle cx="15" cy="15" r="4.9"></circle><circle cx="25" cy="15" r="4.9"></circle><circle cx="35" cy="15" r="4.9"></circle><circle cx="45" cy="15" r="4.9"></circle><circle cx="55" cy="15" r="4.9"></circle><circle cx="65" cy="15" r="4.9"></circle><circle cx="75" cy="15" r="4.9"></circle><circle cx="85" cy="15" r="4.9"></circle><circle cx="95" cy="15" r="4.9"></circle><circle cx="105" cy="15" r="4.9"></circle><circle cx="115" cy="15" r="4.9"></circle><circle cx="5" cy="25" r="4.9"></circle><circle cx="15" cy="25" r="4.9"></circle><circle cx="25" cy="25" r="4.9"></circle><circle cx="35" cy="25" r="4.9"></circle><circle cx="45" cy="25" r="4.9"></circle><circle cx="55" cy="25" r="4.9"></circle><circle cx="65" cy="25" r="4.9"></circle><circle cx="75" cy="25" r="4.9"></circle><circle cx="85" cy="25" r="4.9"></circle><circle cx="95" cy="25" r="4.9"></circle><circle cx="105" cy="25" r="4.9"></circle><circle cx="115" cy="25" r="4.9"></circle><circle cx="5" cy="35" r="4.9"></circle><circle cx="15" cy="35" r="4.9" class="active"></circle><circle cx="25" cy="35" r="4.9" class="active"></circle><circle cx="35" cy="35" r="4.9" class="active"></circle><circle cx="45" cy="35" r="4.9"></circle><circle cx="55" cy="35" r="4.9"></circle><circle cx="65" cy="35" r="4.9" class="active"></circle><circle cx="75" cy="35" r="4.9"></circle><circle cx="85" cy="35" r="4.9"></circle><circle cx="95" cy="35" r="4.9"></circle><circle cx="105" cy="35" r="4.9" class="active"></circle><circle cx="115" cy="35" r="4.9"></circle><circle cx="5" cy="45" r="4.9"></circle><circle cx="15" cy="45" r="4.9" class="active"></circle><circle cx="25" cy="45" r="4.9"></circle><circle cx="35" cy="45" r="4.9"></circle><circle cx="45" cy="45" r="4.9" class="active"></circle><circle cx="55" cy="45" r="4.9"></circle><circle cx="65" cy="45" r="4.9" class="active"></circle><circle cx="75" cy="45" r="4.9" class="active"></circle><circle cx="85" cy="45" r="4.9"></circle><circle cx="95" cy="45" r="4.9" class="active"></circle><circle cx="105" cy="45" r="4.9" class="active"></circle><circle cx="115" cy="45" r="4.9"></circle><circle cx="5" cy="55" r="4.9"></circle><circle cx="15" cy="55" r="4.9" class="active"></circle><circle cx="25" cy="55" r="4.9"></circle><circle cx="35" cy="55" r="4.9"></circle><circle cx="45" cy="55" r="4.9" class="active"></circle><circle cx="55" cy="55" r="4.9"></circle><circle cx="65" cy="55" r="4.9" class="active"></circle><circle cx="75" cy="55" r="4.9"></circle><circle cx="85" cy="55" r="4.9" class="active"></circle><circle cx="95" cy="55" r="4.9"></circle><circle cx="105" cy="55" r="4.9" class="active"></circle><circle cx="115" cy="55" r="4.9"></circle><circle cx="5" cy="65" r="4.9"></circle><circle cx="15" cy="65" r="4.9" class="active"></circle><circle cx="25" cy="65" r="4.9"></circle><circle cx="35" cy="65" r="4.9"></circle><circle cx="45" cy="65" r="4.9" class="active"></circle><circle cx="55" cy="65" r="4.9"></circle><circle cx="65" cy="65" r="4.9" class="active"></circle><circle cx="75" cy="65" r="4.9"></circle><circle cx="85" cy="65" r="4.9"></circle><circle cx="95" cy="65" r="4.9"></circle><circle cx="105" cy="65" r="4.9" class="active"></circle><circle cx="115" cy="65" r="4.9"></circle><circle cx="5" cy="75" r="4.9"></circle><circle cx="15" cy="75" r="4.9" class="active"></circle><circle cx="25" cy="75" r="4.9"></circle><circle cx="35" cy="75" r="4.9"></circle><circle cx="45" cy="75" r="4.9" class="active"></circle><circle cx="55" cy="75" r="4.9"></circle><circle cx="65" cy="75" r="4.9" class="active"></circle><circle cx="75" cy="75" r="4.9"></circle><circle cx="85" cy="75" r="4.9"></circle><circle cx="95" cy="75" r="4.9"></circle><circle cx="105" cy="75" r="4.9" class="active"></circle><circle cx="115" cy="75" r="4.9"></circle><circle cx="5" cy="85" r="4.9"></circle><circle cx="15" cy="85" r="4.9" class="active"></circle><circle cx="25" cy="85" r="4.9" class="active"></circle><circle cx="35" cy="85" r="4.9" class="active"></circle><circle cx="45" cy="85" r="4.9"></circle><circle cx="55" cy="85" r="4.9"></circle><circle cx="65" cy="85" r="4.9" class="active"></circle><circle cx="75" cy="85" r="4.9"></circle><circle cx="85" cy="85" r="4.9"></circle><circle cx="95" cy="85" r="4.9"></circle><circle cx="105" cy="85" r="4.9" class="active"></circle><circle cx="115" cy="85" r="4.9"></circle><circle cx="5" cy="95" r="4.9"></circle><circle cx="15" cy="95" r="4.9"></circle><circle cx="25" cy="95" r="4.9"></circle><circle cx="35" cy="95" r="4.9"></circle><circle cx="45" cy="95" r="4.9"></circle><circle cx="55" cy="95" r="4.9"></circle><circle cx="65" cy="95" r="4.9"></circle><circle cx="75" cy="95" r="4.9"></circle><circle cx="85" cy="95" r="4.9"></circle><circle cx="95" cy="95" r="4.9"></circle><circle cx="105" cy="95" r="4.9"></circle><circle cx="115" cy="95" r="4.9"></circle><circle cx="5" cy="105" r="4.9"></circle><circle cx="15" cy="105" r="4.9"></circle><circle cx="25" cy="105" r="4.9"></circle><circle cx="35" cy="105" r="4.9"></circle><circle cx="45" cy="105" r="4.9"></circle><circle cx="55" cy="105" r="4.9"></circle><circle cx="65" cy="105" r="4.9"></circle><circle cx="75" cy="105" r="4.9"></circle><circle cx="85" cy="105" r="4.9"></circle><circle cx="95" cy="105" r="4.9"></circle><circle cx="105" cy="105" r="4.9"></circle><circle cx="115" cy="105" r="4.9"></circle><circle cx="5" cy="115" r="4.9"></circle><circle cx="15" cy="115" r="4.9"></circle><circle cx="25" cy="115" r="4.9"></circle><circle cx="35" cy="115" r="4.9"></circle><circle cx="45" cy="115" r="4.9"></circle><circle cx="55" cy="115" r="4.9"></circle><circle cx="65" cy="115" r="4.9"></circle><circle cx="75" cy="115" r="4.9"></circle><circle cx="85" cy="115" r="4.9"></circle><circle cx="95" cy="115" r="4.9"></circle><circle cx="105" cy="115" r="4.9"></circle><circle cx="115" cy="115" r="4.9"></circle></svg>